<svg width="254" height="54" viewBox="0 0 254 54" fill="none" xmlns="http://www.w3.org/2000/svg">
<path d="M52.4169 33.2435C48.8904 47.389 34.565 55.9961 20.4166 52.4695C6.27672 48.943 -2.33312 34.6148 1.19624 20.4721C4.71998 6.32652 19.0482 -2.28333 33.1909 1.24322C47.3364 4.76977 55.9435 19.098 52.4169 33.2435Z" fill="white"/>
<path d="M38.4484 23.0939C38.9738 19.5814 36.2987 17.6931 32.6401 16.4314L33.8259 11.6713L30.9288 10.9491L29.7739 15.5828C29.0124 15.3917 28.2312 15.2147 27.4528 15.0376L28.6162 10.373L25.7219 9.65088L24.5332 14.4082C23.9038 14.2649 23.2828 14.1216 22.6843 13.9727L22.6871 13.9586L18.6913 12.9611L17.9213 16.0549C17.9213 16.0549 20.071 16.5466 20.026 16.5775C21.2006 16.8698 21.4113 17.6481 21.3748 18.2635L20.0232 23.684C20.1047 23.7037 20.2087 23.7346 20.3239 23.7796C20.2283 23.7543 20.1244 23.729 20.0176 23.7037L18.1236 31.2991C17.9803 31.656 17.615 32.1899 16.7973 31.9876C16.8254 32.0297 14.6926 31.4621 14.6926 31.4621L13.2539 34.7779L17.0249 35.7164C17.7274 35.8935 18.4131 36.0761 19.0903 36.2503L17.8904 41.0639L20.7847 41.786L21.9733 37.0231C22.7629 37.2367 23.5301 37.4362 24.2832 37.6216L23.0973 42.3677L25.9944 43.0899L27.1943 38.2848C32.1343 39.2205 35.8491 38.8412 37.4115 34.3733C38.6704 30.7765 37.3497 28.6999 34.7504 27.3483C36.6415 26.9127 38.069 25.6679 38.4484 23.0939ZM31.8308 32.3754C30.9344 35.9722 24.8789 34.0276 22.9147 33.5415L24.5051 27.1656C26.4665 27.6546 32.7637 28.624 31.8308 32.3754ZM32.7244 23.0433C31.9067 26.317 26.8655 24.6535 25.2301 24.246L26.6717 18.463C28.3099 18.8677 33.5758 19.6292 32.7244 23.0433Z" fill="black"/>
<path d="M77.78 16.4283C79.9212 16.4283 81.7702 16.8133 83.327 17.5664C84.8893 18.3279 86.1763 19.3507 87.2104 20.6405C88.2304 21.9359 88.9891 23.4505 89.4781 25.1843C89.9642 26.9237 90.2087 28.7951 90.2087 30.7987C90.2087 33.8756 89.6439 36.7812 88.5086 39.5209C87.3706 42.2635 85.8279 44.6435 83.8637 46.6724C81.9023 48.6984 79.584 50.2973 76.9117 51.4775C74.245 52.6577 71.3451 53.2506 68.2288 53.2506C67.827 53.2506 67.1189 53.2393 66.1185 53.2197C65.1182 53.2 63.9689 53.096 62.6819 52.9218C61.3865 52.742 60.018 52.475 58.5709 52.1153C57.1265 51.7641 55.7524 51.2723 54.4598 50.6457L66.0202 2.06643L76.375 0.461914L72.2359 17.7013C73.1211 17.3022 74.0146 16.9931 74.9054 16.7683C75.8018 16.5435 76.7572 16.4283 77.78 16.4283ZM69.0943 45.0341C70.6539 45.0341 72.1235 44.6492 73.5032 43.8961C74.8885 43.143 76.0828 42.123 77.0832 40.8557C78.0835 39.5827 78.8759 38.1468 79.4548 36.5423C80.0337 34.9378 80.3231 33.2659 80.3231 31.5265C80.3231 29.3881 79.9662 27.7217 79.2525 26.5162C78.5415 25.3164 77.2237 24.7122 75.31 24.7122C74.6834 24.7122 73.8741 24.833 72.8738 25.0466C71.8678 25.2742 70.9686 25.7435 70.1621 26.4544L65.7532 44.7616C66.0202 44.8093 66.2534 44.8543 66.4557 44.8964C66.6524 44.9414 66.8688 44.9751 67.0852 44.9976C67.3128 45.0229 67.5741 45.037 67.8916 45.037C68.212 45.0341 68.6054 45.0341 69.0943 45.0341Z" fill="white"/>
<path d="M100.951 52.3204H91.0601L99.4114 17.1729H109.37L100.951 52.3204ZM105.762 12.8905C104.382 12.8905 103.129 12.4802 102.019 11.6569C100.901 10.8392 100.344 9.57747 100.344 7.88023C100.344 6.94731 100.535 6.07058 100.909 5.24444C101.291 4.4183 101.791 3.71019 102.415 3.10604C103.039 2.50751 103.764 2.02981 104.585 1.66732C105.411 1.31326 106.29 1.13623 107.229 1.13623C108.609 1.13623 109.853 1.54649 110.969 2.36982C112.079 3.19877 112.638 4.45765 112.638 6.14646C112.638 7.085 112.45 7.96453 112.07 8.78786C111.694 9.614 111.194 10.3221 110.57 10.9263C109.949 11.5248 109.221 12.0025 108.401 12.3594C107.574 12.719 106.698 12.8905 105.762 12.8905Z" fill="white"/>
<path d="M118.039 8.41701L128.399 6.8125L125.856 17.173H136.95L134.947 25.322H123.92L120.984 37.6157C120.714 38.6414 120.559 39.5968 120.517 40.4875C120.469 41.3811 120.582 42.1483 120.849 42.7946C121.116 43.4409 121.593 43.941 122.285 44.2951C122.973 44.6548 123.962 44.8346 125.258 44.8346C126.326 44.8346 127.365 44.7335 128.368 44.5311C129.369 44.3344 130.38 44.0562 131.406 43.6966L132.145 51.3173C130.807 51.8062 129.36 52.2277 127.801 52.5846C126.238 52.9443 124.389 53.1185 122.254 53.1185C119.182 53.1185 116.8 52.6633 115.102 51.7528C113.408 50.8368 112.211 49.5891 111.492 48.0043C110.783 46.4279 110.469 44.6098 110.556 42.5613C110.649 40.5072 110.958 38.3519 111.492 36.0787L118.039 8.41701Z" fill="white"/>
<path d="M136.512 38.2847C136.512 35.2583 137.001 32.4034 137.981 29.7311C138.959 27.0559 140.367 24.718 142.196 22.7089C144.017 20.711 146.237 19.1289 148.848 17.9656C151.447 16.8107 154.358 16.229 157.564 16.229C159.571 16.229 161.363 16.4201 162.943 16.7994C164.528 17.1844 165.961 17.679 167.256 18.3L163.845 26.0556C162.954 25.6931 162.029 25.3756 161.071 25.0861C160.113 24.7911 158.947 24.6506 157.564 24.6506C154.263 24.6506 151.652 25.7886 149.71 28.0563C147.774 30.3268 146.802 33.3813 146.802 37.2141C146.802 39.4846 147.291 41.3223 148.275 42.7273C149.252 44.1323 151.062 44.832 153.687 44.832C154.982 44.832 156.232 44.6971 157.429 44.433C158.635 44.166 159.7 43.8288 160.638 43.4326L161.378 51.3821C160.127 51.8682 158.747 52.3066 157.233 52.6888C155.715 53.0597 153.911 53.2508 151.818 53.2508C149.056 53.2508 146.715 52.8461 144.801 52.0509C142.888 51.2416 141.306 50.1682 140.058 48.8081C138.805 47.4453 137.906 45.8548 137.349 44.0255C136.796 42.2046 136.512 40.2854 136.512 38.2847Z" fill="white"/>
<path d="M180.449 53.2537C178.089 53.2537 176.037 52.894 174.298 52.1831C172.564 51.4721 171.128 50.4718 169.99 49.1764C168.852 47.8866 168.001 46.3607 167.416 44.6017C166.832 42.8426 166.553 40.8953 166.553 38.7597C166.553 36.0818 166.983 33.4066 167.852 30.7371C168.717 28.062 169.999 25.6595 171.699 23.5211C173.385 21.3827 175.461 19.632 177.909 18.2692C180.353 16.9148 183.166 16.2319 186.325 16.2319C188.643 16.2319 190.683 16.5916 192.445 17.3054C194.201 18.0163 195.645 19.0223 196.789 20.3121C197.919 21.6075 198.779 23.1277 199.355 24.8895C199.936 26.6458 200.223 28.5987 200.223 30.7343C200.223 33.4038 199.799 36.079 198.958 38.7569C198.115 41.4208 196.865 43.8318 195.215 45.973C193.569 48.1086 191.509 49.8564 189.036 51.2164C186.566 52.5708 183.703 53.2537 180.449 53.2537ZM185.392 24.6535C183.925 24.6535 182.629 25.0806 181.52 25.9208C180.407 26.7722 179.471 27.84 178.715 29.1298C177.954 30.4252 177.389 31.8387 177.007 33.3729C176.627 34.9128 176.442 36.3656 176.442 37.7481C176.442 39.9792 176.802 41.7158 177.51 42.9663C178.226 44.2083 179.516 44.8349 181.387 44.8349C182.86 44.8349 184.147 44.4134 185.265 43.562C186.372 42.719 187.308 41.6484 188.07 40.3558C188.828 39.066 189.396 37.6497 189.778 36.1127C190.152 34.5784 190.343 33.1172 190.343 31.7375C190.343 29.512 189.986 27.7726 189.272 26.525C188.556 25.2773 187.263 24.6535 185.392 24.6535Z" fill="white"/>
<path d="M211.002 52.3204H201.102L209.454 17.1729H219.418L211.002 52.3204ZM215.807 12.8905C214.427 12.8905 213.177 12.4802 212.067 11.6569C210.954 10.8392 210.395 9.57747 210.395 7.88023C210.395 6.94731 210.586 6.07058 210.966 5.24444C211.342 4.4183 211.845 3.71019 212.472 3.10604C213.093 2.50751 213.823 2.02981 214.644 1.66732C215.464 1.31326 216.344 1.13623 217.28 1.13623C218.662 1.13623 219.913 1.54649 221.025 2.36982C222.138 3.19877 222.7 4.45765 222.7 6.14646C222.7 7.085 222.501 7.96453 222.127 8.78786C221.753 9.614 221.25 10.3221 220.626 10.9263C220 11.5248 219.278 12.0025 218.457 12.3594C217.625 12.719 216.746 12.8905 215.807 12.8905Z" fill="white"/>
<path d="M226.547 18.7719C227.297 18.5528 228.137 18.2886 229.048 18.002C229.964 17.7154 230.984 17.4484 232.128 17.2068C233.257 16.9595 234.533 16.7572 235.935 16.5998C237.337 16.4396 238.933 16.3638 240.709 16.3638C245.925 16.3638 249.522 17.884 251.505 20.9103C253.489 23.9395 253.832 28.0843 252.545 33.339L247.996 52.3177H238.04L242.449 33.7408C242.719 32.5803 242.929 31.4591 243.084 30.3632C243.241 29.2785 243.233 28.3203 243.047 27.4914C242.87 26.6737 242.457 26.0021 241.814 25.485C241.162 24.9736 240.176 24.7179 238.838 24.7179C237.548 24.7179 236.236 24.8556 234.898 25.1225L228.416 52.3177H218.457L226.547 18.7719Z" fill="white"/>
</svg>
