<svg width="384" height="200" viewBox="0 0 384 200" fill="none" xmlns="http://www.w3.org/2000/svg">
<rect x="31.5" y="21.5" width="321" height="157" rx="11.5" stroke="#212328"/>
<rect opacity="0.5" x="261" y="53" width="76" height="48" rx="6" fill="#1C1E23"/>
<rect opacity="0.5" x="261" y="113" width="76" height="41" rx="6" fill="#1C1E23"/>
<rect opacity="0.5" x="47" y="58" width="190" height="8" rx="4" fill="#1C1E23"/>
<rect opacity="0.5" x="47" y="78" width="94" height="5" rx="2.5" fill="#1C1E23"/>
<rect opacity="0.5" x="47" y="91" width="50" height="5" rx="2.5" fill="#1C1E23"/>
<g opacity="0.5">
<rect x="47" y="116" width="111" height="8" rx="4" fill="#1C1E23"/>
<rect x="47" y="116" width="111" height="8" rx="4" fill="#1C1E23"/>
<rect x="47" y="116" width="111" height="8" rx="4" fill="#1C1E23"/>
</g>
<g opacity="0.5">
<rect x="47" y="136" width="158" height="5" rx="2.5" fill="#1C1E23"/>
<rect x="47" y="136" width="158" height="5" rx="2.5" fill="#1C1E23"/>
<rect x="47" y="136" width="158" height="5" rx="2.5" fill="#1C1E23"/>
</g>
<g opacity="0.5">
<rect x="47" y="149" width="94" height="5" rx="2.5" fill="#1C1E23"/>
<rect x="47" y="149" width="94" height="5" rx="2.5" fill="#1C1E23"/>
<rect x="47" y="149" width="94" height="5" rx="2.5" fill="#1C1E23"/>
</g>
<circle cx="49.5" cy="39.5" r="2.5" fill="#272A30"/>
<circle cx="60.5" cy="39.5" r="2.5" fill="#272A30"/>
<circle cx="71.5" cy="39.5" r="2.5" fill="#272A30"/>
<g filter="url(#filter0_d_661_14330)">
<path d="M188 62.3094C190.475 60.8803 193.525 60.8803 196 62.3094L222.641 77.6906C225.116 79.1197 226.641 81.7607 226.641 84.6188V115.381C226.641 118.239 225.116 120.88 222.641 122.309L196 137.691C193.525 139.12 190.475 139.12 188 137.691L161.359 122.309C158.884 120.88 157.359 118.239 157.359 115.381V84.6188C157.359 81.7607 158.884 79.1197 161.359 77.6906L188 62.3094Z" fill="#0A0F1B"/>
<path d="M195.7 62.829L222.341 78.2102C224.631 79.5321 226.041 81.975 226.041 84.6188V115.381C226.041 118.025 224.631 120.468 222.341 121.79L195.7 137.171C193.41 138.493 190.59 138.493 188.3 137.171L161.659 121.79C159.369 120.468 157.959 118.025 157.959 115.381V84.6188C157.959 81.975 159.369 79.5321 161.659 78.2102L188.3 62.829C190.59 61.5071 193.41 61.5071 195.7 62.829Z" stroke="#6100FF" stroke-width="1.2"/>
</g>
<path d="M208.956 106.495L207.734 96.9789C207.649 96.4409 207.588 95.8823 207.529 95.3418C207.507 95.1434 207.486 94.9446 207.463 94.7461C207.022 90.9002 203.799 88 199.967 88C198.238 88 196.549 88.6069 195.211 89.7088C194.197 90.5428 192.964 91.0024 191.738 91.0024H191.259C190.033 91.0024 188.801 90.5439 187.79 89.7112C186.45 88.608 184.759 88 183.029 88C179.199 88 175.978 90.9005 175.537 94.7468L175.473 95.3261C175.414 95.8711 175.352 96.4346 175.264 96.9967L174.044 106.497C173.848 108.024 174.316 109.56 175.328 110.711C176.323 111.842 177.754 112.491 179.251 112.491C181.092 112.491 182.82 111.498 183.763 109.9L186.723 104.876C187.099 104.237 187.788 103.84 188.52 103.84H194.479C195.211 103.84 195.9 104.237 196.276 104.876L199.232 109.897C200.175 111.497 201.904 112.491 203.746 112.491C205.245 112.491 206.675 111.842 207.671 110.71C208.684 109.559 209.152 108.022 208.956 106.495ZM206.62 109.785C205.89 110.615 204.843 111.091 203.747 111.091C202.399 111.091 201.131 110.361 200.44 109.187L197.483 104.166C196.857 103.102 195.706 102.44 194.48 102.44H188.52C187.295 102.44 186.144 103.101 185.517 104.165L182.557 109.189C181.865 110.362 180.599 111.091 179.252 111.091C178.156 111.091 177.11 110.616 176.38 109.786C175.633 108.938 175.288 107.804 175.433 106.676L176.651 97.1952C176.741 96.6197 176.804 96.0394 176.866 95.478L176.929 94.9064C177.289 91.7675 179.911 89.4004 183.03 89.4004C184.436 89.4004 185.811 89.8946 186.901 90.7924C188.163 91.8309 189.71 92.4028 191.261 92.4028H191.739C193.289 92.4028 194.838 91.8302 196.102 90.7899C197.189 89.8939 198.562 89.4004 199.968 89.4004C203.088 89.4004 205.713 91.7675 206.073 94.9068L206.138 95.4945C206.199 96.051 206.262 96.6264 206.349 97.1777L207.569 106.674C207.713 107.802 207.367 108.936 206.62 109.785Z" fill="#6100FF"/>
<path d="M200.392 91.897C198.877 91.897 197.645 93.1409 197.645 94.6701C197.645 96.199 198.877 97.4429 200.392 97.4429C201.906 97.4429 203.139 96.199 203.139 94.6701C203.139 93.1409 201.906 91.897 200.392 91.897ZM200.392 96.0429C199.65 96.0429 199.045 95.4268 199.045 94.6701C199.045 93.913 199.65 93.297 200.392 93.297C201.134 93.297 201.738 93.913 201.738 94.6701C201.738 95.4268 201.134 96.0429 200.392 96.0429Z" fill="#6100FF"/>
<path d="M182.608 91.897C181.093 91.897 179.861 93.1409 179.861 94.6701C179.861 96.199 181.093 97.4429 182.608 97.4429C184.122 97.4429 185.354 96.199 185.354 94.6701C185.354 93.1409 184.122 91.897 182.608 91.897ZM182.608 96.0429C181.865 96.0429 181.261 95.4268 181.261 94.6701C181.261 93.913 181.865 93.297 182.608 93.297C183.35 93.297 183.954 93.913 183.954 94.6701C183.954 95.4268 183.351 96.0429 182.608 96.0429Z" fill="#6100FF"/>
<defs>
<filter id="filter0_d_661_14330" x="97.359" y="1.23755" width="189.282" height="197.525" filterUnits="userSpaceOnUse" color-interpolation-filters="sRGB">
<feFlood flood-opacity="0" result="BackgroundImageFix"/>
<feColorMatrix in="SourceAlpha" type="matrix" values="0 0 0 0 0 0 0 0 0 0 0 0 0 0 0 0 0 0 127 0" result="hardAlpha"/>
<feOffset/>
<feGaussianBlur stdDeviation="30"/>
<feComposite in2="hardAlpha" operator="out"/>
<feColorMatrix type="matrix" values="0 0 0 0 0.380392 0 0 0 0 0 0 0 0 0 1 0 0 0 0.4 0"/>
<feBlend mode="normal" in2="BackgroundImageFix" result="effect1_dropShadow_661_14330"/>
<feBlend mode="normal" in="SourceGraphic" in2="effect1_dropShadow_661_14330" result="shape"/>
</filter>
</defs>
</svg>
