<svg width="924" height="232" viewBox="0 0 924 232" fill="none" xmlns="http://www.w3.org/2000/svg">
<path d="M262.171 133.436C262.171 135.06 260.803 136.427 259.094 136.427H202.427C203.88 150.444 214.393 163.265 229.265 163.265C239.436 163.265 246.957 159.419 252.598 151.299C253.196 150.444 254.051 149.846 255.077 149.846C256.701 149.846 257.897 151.042 257.897 152.666C257.897 153.265 257.726 153.692 257.47 154.119C251.743 164.034 240.376 168.906 229.265 168.906C210.205 168.906 196.53 151.812 196.53 133.607C196.53 115.316 210.12 98.3074 229.265 98.3074C248.325 98.3074 262.085 115.231 262.171 133.436ZM256.102 130.786C254.906 116.769 244.137 103.948 229.265 103.948C214.393 103.948 203.88 116.769 202.427 130.786H256.102ZM330.974 99.6749C332.598 99.6749 333.795 101.128 333.795 102.495C333.795 104.119 332.598 105.316 330.974 105.316H315.761V165.06C315.761 166.513 314.564 167.88 312.94 167.88C311.316 167.88 310.12 166.427 310.12 165.06V105.316H295.504C293.88 105.316 292.684 104.119 292.684 102.495C292.684 101.042 293.88 99.6749 295.504 99.6749H310.12V77.8801C310.12 76.4271 311.231 75.0596 312.684 74.8886C314.478 74.7177 315.846 75.9997 315.846 77.7091V99.6749H330.974ZM423.795 128.564V164.718C423.795 166.342 422.342 167.538 420.974 167.538C419.35 167.538 418.154 166.342 418.154 164.718V128.564C418.154 116.342 411.231 104.205 397.641 104.205C380.205 104.205 372.684 119.419 373.709 135.06C373.709 135.487 373.88 137.282 373.88 137.538V164.632C373.88 166.085 372.769 167.453 371.316 167.624C369.521 167.795 368.154 166.513 368.154 164.803V45.9143C368.154 44.4613 369.35 43.0938 370.974 43.0938C372.598 43.0938 373.795 44.5467 373.795 45.9143V113.094C378.667 104.376 387.384 98.4784 397.555 98.4784C414.308 98.4784 423.795 113.094 423.795 128.564ZM525.59 133.436C525.59 135.06 524.222 136.427 522.513 136.427H465.846C467.299 150.444 477.812 163.265 492.684 163.265C502.855 163.265 510.376 159.419 516.017 151.299C516.615 150.444 517.47 149.846 518.496 149.846C520.12 149.846 521.316 151.042 521.316 152.666C521.316 153.265 521.145 153.692 520.889 154.119C515.162 164.034 503.795 168.906 492.684 168.906C473.624 168.906 459.949 151.812 459.949 133.607C459.949 115.316 473.538 98.3074 492.684 98.3074C511.658 98.3074 525.419 115.231 525.59 133.436ZM519.436 130.786C518.239 116.769 507.47 103.948 492.598 103.948C477.812 103.948 467.214 116.769 465.761 130.786H519.436ZM595.162 102.325C595.162 104.119 594.137 105.145 592.513 105.401C575.846 107.88 568.325 121.47 568.325 137.282V164.376C568.325 165.829 567.214 167.196 565.761 167.367C563.966 167.538 562.598 166.256 562.598 164.547V102.752C562.598 101.299 563.709 99.9314 565.162 99.7604C566.957 99.5895 568.325 100.872 568.325 102.581V115.145C573.026 107.196 582.342 99.6749 592.085 99.6749C593.538 99.6749 595.162 100.701 595.162 102.325ZM688.41 133.436C688.41 135.06 687.043 136.427 685.333 136.427H628.667C630.12 150.444 640.632 163.265 655.504 163.265C665.675 163.265 673.196 159.419 678.838 151.299C679.436 150.444 680.29 149.846 681.316 149.846C682.94 149.846 684.137 151.042 684.137 152.666C684.137 153.265 683.966 153.692 683.709 154.119C677.983 164.034 666.615 168.906 655.504 168.906C636.444 168.906 622.769 151.812 622.769 133.607C622.769 115.316 636.359 98.3074 655.504 98.3074C674.564 98.3074 688.325 115.231 688.41 133.436ZM682.342 130.786C681.145 116.769 670.376 103.948 655.504 103.948C640.632 103.948 630.12 116.769 628.667 130.786H682.342ZM780.034 103.008V165.06C780.034 166.683 778.581 167.88 777.214 167.88C775.59 167.88 774.393 166.683 774.393 165.06V153.265C769.692 162.581 761.402 169.333 750.803 169.333C733.966 169.333 724.649 154.718 724.649 139.248V102.923C724.649 101.47 725.846 100.102 727.47 100.102C729.094 100.102 730.29 101.555 730.29 102.923V139.248C730.29 151.47 737.214 163.607 750.803 163.607C769.863 163.607 774.393 145.743 774.393 126V102.837C774.393 101.128 776.188 99.4185 778.239 100.188C779.265 100.701 780.034 101.812 780.034 103.008ZM923.538 128.307V164.632C923.538 166.256 922.085 167.453 920.718 167.453C919.094 167.453 917.897 166.256 917.897 164.632V128.307C917.897 116.085 910.974 104.119 897.384 104.119C880.29 104.119 873.795 122.41 873.795 136.598V164.632C873.795 166.256 872.342 167.453 870.974 167.453C869.35 167.453 868.154 166.256 868.154 164.632V128.307C868.154 116.085 861.231 104.119 847.641 104.119C830.376 104.119 823.282 117.709 823.88 135.829C823.88 136.256 824.051 137.025 823.88 137.282V164.547C823.88 166 822.769 167.367 821.316 167.538C819.521 167.709 818.154 166.427 818.154 164.718V102.752C818.154 101.299 819.265 99.9314 820.718 99.7604C822.513 99.5895 823.88 100.872 823.88 102.581V112.923C828.752 104.205 837.47 98.4784 847.641 98.4784C859.179 98.4784 868.154 105.829 871.829 116.513C876.53 105.914 885.675 98.4784 897.384 98.4784C914.051 98.4784 923.538 112.923 923.538 128.307Z" fill="white"/>
<path opacity="0.45" d="M71.4016 85.9144V0.358887L0.461426 118.137L71.4016 160.102V85.9144Z" fill="white"/>
<path opacity="0.8" d="M71.4019 160.102L142.428 118.137L71.4019 0.358887V85.9144V160.102Z" fill="white"/>
<path opacity="0.45" d="M71.4016 173.521L0.461426 131.641L71.4016 231.641V173.521Z" fill="white"/>
<path opacity="0.8" d="M142.428 131.641L71.4019 173.521V231.641L142.428 131.641Z" fill="white"/>
</svg>
