<svg width="54" height="80" viewBox="0 0 54 80" fill="none" xmlns="http://www.w3.org/2000/svg">
<path d="M18.1 79.3C18.4 79.5 18.8 79.5 19.1 79.6C20 79.6 20.9 79.3 21.5 78.5L52.8 37.3C53.5 36.5 53.6 35.3 53.1 34.4C52.7 33.5 51.7 32.8 50.7 32.8L32.6 31.8L39.2 4.00004C39.5 2.80004 38.9 1.40004 37.8 0.80004C36.7 0.20004 35.3 0.50004 34.4 1.50004L1.50001 39.3C0.80001 40.1 0.60001 41.3 1.00001 42.2C1.40001 43.2 2.40001 43.8 3.40001 43.9L23.4 45L16.5 76C16.3 77.4 16.9 78.8 18.1 79.3Z" fill="#00FF9F"/>
</svg>
