<svg width="384" height="203" viewBox="0 0 384 203" fill="none" xmlns="http://www.w3.org/2000/svg">
<path opacity="0.9" d="M95.6471 88.0001H164V94.0001H96C89.3726 94.0001 84 88.6275 84 82.0001V66.8237C84 65.2643 85.2641 64.0001 86.8235 64.0001C88.3829 64.0001 89.6471 65.2643 89.6471 66.8237V82.0001C89.6471 85.3138 92.3333 88.0001 95.6471 88.0001Z" fill="url(#paint0_linear_660_14141)" fill-opacity="0.6"/>
<circle cx="87" cy="47.0001" r="23.5" fill="#171717" stroke="#202020"/>
<path d="M98.5616 54.5682C98.5616 54.4184 98.5115 54.3186 98.4113 54.2188L96.2568 52.0723C96.1566 51.9724 95.9562 51.9225 95.8058 51.9225L94.2025 52.222L94.3027 50.375C94.3027 50.2253 94.2526 50.0755 94.1524 49.9757L93.1503 48.9773C93.0501 48.8775 92.9499 48.8275 92.8497 48.8275L90.3445 48.528L90.5449 46.6311C90.5449 46.4813 90.4948 46.3316 90.3946 46.2318L87.6889 43.5361C88.4906 41.1899 87.8893 38.5942 86.0856 36.847C84.9332 35.6989 83.2797 35 81.5261 35C79.7724 35 78.119 35.6989 76.9165 36.8969C74.3612 39.4428 74.3612 43.586 76.9165 46.1319C78.1691 47.3799 79.8225 48.0288 81.5261 48.0288C82.2276 48.0288 82.929 47.929 83.6305 47.6794L94.7536 58.7614C94.8539 58.8612 94.9541 58.9112 95.1044 58.9112H95.1545L98.1607 58.5118C98.4113 58.4619 98.6117 58.2622 98.6117 58.0126L98.5616 54.5682ZM95.3048 57.9128L84.0814 46.7809C83.9812 46.681 83.881 46.6311 83.7307 46.6311C83.6806 46.6311 83.6305 46.6311 83.5303 46.681C82.8789 46.9306 82.1775 47.0804 81.476 47.0804C79.9729 47.0804 78.62 46.4813 77.5678 45.483C75.4134 43.3365 75.4134 39.7922 77.5678 37.6457C78.6701 36.5974 80.0731 35.9984 81.5261 35.9984C83.0292 35.9984 84.382 36.5974 85.4342 37.5958C86.9875 39.1433 87.4885 41.4895 86.6868 43.5361C86.6367 43.7358 86.6367 43.9355 86.7871 44.0852L89.5428 46.8308L89.3925 48.9773C89.3424 49.2269 89.5428 49.4765 89.8434 49.5264L92.6493 49.8758L93.3507 50.5747L93.2505 52.871C93.2505 53.0207 93.3006 53.1705 93.4008 53.2703C93.501 53.3702 93.6514 53.4201 93.8017 53.3702L95.7557 53.0207L97.5595 54.8178V57.6632L95.3048 57.9128Z" fill="white"/>
<path d="M80.5741 38.045C79.9228 38.045 79.2714 38.2947 78.7704 38.7939C77.7683 39.7925 77.7683 41.44 78.7704 42.4386C79.2714 42.9378 79.9228 43.1875 80.5741 43.1875C81.2255 43.1875 81.9269 42.9378 82.3779 42.4386C83.38 41.44 83.38 39.7925 82.3779 38.7939C81.9269 38.2947 81.2756 38.045 80.5741 38.045ZM81.6764 41.6897C81.0752 42.2888 80.0731 42.2888 79.4718 41.6897C78.8706 41.0905 78.8706 40.092 79.4718 39.4929C79.7725 39.1933 80.1733 39.0436 80.5741 39.0436C80.975 39.0436 81.3758 39.1933 81.6764 39.4929C82.3278 40.092 82.3278 41.0905 81.6764 41.6897Z" fill="white"/>
<path opacity="0.9" d="M300 118L227 118L227 112L300 112C306.627 112 312 117.373 312 124L312 139C312 140.657 310.657 142 309 142C307.343 142 306 140.657 306 139L306 124C306 120.686 303.314 118 300 118Z" fill="url(#paint1_linear_660_14141)" fill-opacity="0.6"/>
<circle cx="308" cy="155" r="23.5" fill="#171717" stroke="#202020"/>
<path d="M306.132 143.003C306.006 143.014 305.888 143.068 305.797 143.157C305.707 143.245 305.651 143.362 305.637 143.487C305.283 147.113 304.723 150.515 302.603 152.845L301.793 150.434C301.759 150.332 301.695 150.242 301.609 150.177C301.524 150.111 301.421 150.072 301.313 150.065C301.205 150.058 301.098 150.082 301.004 150.136C300.911 150.189 300.835 150.269 300.787 150.366C300.787 150.366 300.089 151.778 299.398 153.584C298.706 155.39 298 157.581 298 159.308C298 161.337 299.407 163.171 300.745 164.539C302.082 165.908 303.421 166.815 303.421 166.815C303.52 166.882 303.638 166.915 303.757 166.909C303.877 166.902 303.991 166.857 304.082 166.78C304.173 166.703 304.236 166.598 304.261 166.481C304.287 166.365 304.273 166.244 304.222 166.136C303.793 165.245 303.728 164.576 303.728 163.928C303.728 162.576 304.542 161.68 305.544 160.31C306.444 159.079 307.387 157.446 307.7 154.985C308.896 155.703 311.365 157.592 311.365 160.939C311.365 161.691 311.044 163.048 310.709 164.166C310.374 165.283 310.036 166.178 310.036 166.178C310.001 166.272 309.992 166.374 310.012 166.472C310.031 166.57 310.077 166.661 310.145 166.735C310.213 166.809 310.3 166.862 310.396 166.89C310.493 166.918 310.595 166.918 310.692 166.892C310.692 166.892 312.42 166.418 314.144 165.142C315.868 163.866 317.639 161.724 317.639 158.493C317.639 152.357 313.403 147.793 313.403 147.793C313.335 147.718 313.248 147.664 313.151 147.636C313.055 147.608 312.952 147.608 312.855 147.634C312.758 147.66 312.671 147.713 312.602 147.786C312.533 147.859 312.485 147.949 312.465 148.047L312.15 149.533C311.042 146.461 308.718 144.645 306.498 143.096C306.391 143.023 306.261 142.99 306.132 143.003ZM306.609 144.54C309.024 146.28 311.177 148.213 311.638 152.03C311.647 152.163 311.705 152.288 311.801 152.381C311.896 152.474 312.023 152.529 312.157 152.535C312.29 152.542 312.421 152.499 312.525 152.415C312.629 152.331 312.699 152.213 312.721 152.081L313.292 149.415C314.421 150.941 316.548 154.347 316.548 158.493C316.548 161.335 315.045 163.121 313.496 164.268C312.745 164.824 311.999 165.214 311.425 165.465C311.552 165.094 311.585 165.026 311.749 164.48C312.095 163.325 312.456 161.968 312.456 160.939C312.456 155.831 307.496 153.644 307.496 153.644C307.415 153.608 307.326 153.592 307.238 153.598C307.15 153.603 307.064 153.63 306.989 153.676C306.913 153.722 306.85 153.786 306.805 153.862C306.759 153.937 306.733 154.023 306.728 154.111C306.571 156.84 305.627 158.358 304.666 159.673C303.704 160.988 302.637 162.143 302.637 163.928C302.637 164.206 302.678 164.527 302.722 164.853C302.34 164.529 301.963 164.228 301.529 163.783C300.275 162.501 299.091 160.806 299.091 159.308C299.091 157.894 299.748 155.731 300.421 153.975C300.815 152.944 300.946 152.706 301.205 152.141L301.844 154.043C301.873 154.128 301.922 154.205 301.987 154.267C302.052 154.329 302.132 154.373 302.219 154.397C302.306 154.42 302.398 154.422 302.485 154.402C302.573 154.381 302.654 154.34 302.722 154.281C305.484 151.849 306.205 148.219 306.609 144.54Z" fill="white"/>
<path opacity="0.9" d="M138 110H163V116H138C134.686 116 132 118.686 132 122V150C132 156.627 126.627 162 120 162H83.009C81.3472 162 80 160.653 80 158.991C80 157.336 81.3362 155.992 82.9909 155.982L120.036 155.76C123.336 155.74 126 153.06 126 149.76V122C126 115.373 131.373 110 138 110Z" fill="url(#paint2_linear_660_14141)" fill-opacity="0.6"/>
<circle cx="66" cy="158" r="23.5" fill="#171717" stroke="#202020"/>
<path d="M74.9211 155.977C72.851 155.155 69.694 153.153 67.8525 148.343C66.0109 153.153 62.8539 155.155 60.7838 155.977C62.8539 156.798 66.0109 158.8 67.8525 163.61C69.694 158.8 72.851 156.798 74.9211 155.977ZM62.0177 164.643C61.0851 164.152 59.9483 163.237 59.1451 161.539C58.3419 163.237 57.2058 164.152 56.2725 164.643C57.205 165.133 58.3411 166.049 59.1451 167.747C59.9483 166.049 61.0851 165.133 62.0177 164.643ZM59.6859 159.783C60.7904 163.69 63.6152 164.067 63.7791 164.087C64.0407 164.11 64.2568 164.314 64.2854 164.584C64.3185 164.891 64.0951 165.167 63.7865 165.199C63.7784 165.2 60.8228 165.484 59.6859 169.5C59.6352 169.683 59.4927 169.835 59.2957 169.89C58.9974 169.974 58.6873 169.8 58.6035 169.502C57.499 165.595 54.6742 165.218 54.5096 165.199C54.2487 165.176 54.0319 164.971 54.0032 164.702C53.9702 164.395 54.1936 164.119 54.5015 164.087C54.5103 164.086 57.4652 163.802 58.602 159.785C58.6527 159.602 58.7953 159.45 58.9915 159.395C59.2898 159.312 59.6 159.485 59.6837 159.782L59.6859 159.783ZM68.3926 146.408C70.7236 154.654 76.8192 155.393 77.0684 155.42C77.33 155.444 77.5468 155.648 77.5754 155.918C77.6085 156.225 77.3851 156.501 77.0772 156.533C77.0588 156.535 70.7706 157.14 68.3933 165.543C68.3426 165.726 68.2 165.878 68.0038 165.933C67.7055 166.016 67.3954 165.843 67.3116 165.546C64.9806 157.3 58.8849 156.561 58.6358 156.534C58.3742 156.51 58.1574 156.306 58.128 156.036C58.0957 155.729 58.3184 155.453 58.627 155.421C58.6454 155.419 64.9336 154.814 67.3101 146.411C67.3608 146.228 67.5034 146.076 67.7003 146.021C67.9987 145.937 68.3088 146.111 68.3926 146.409V146.408Z" fill="white"/>
<path opacity="0.9" d="M271.173 47.0001H307V53.0001H271.847C268.533 53.0001 265.847 55.6864 265.847 59.0001V66.0001C265.847 72.6275 260.474 78.0001 253.847 78.0001H201C199.343 78.0001 198 76.657 198 75.0001C198 73.3433 199.343 72.0001 201 72.0001H253.173C256.487 72.0001 259.173 69.3138 259.173 66.0001V59.0001C259.173 52.3727 264.546 47.0001 271.173 47.0001Z" fill="url(#paint3_linear_660_14141)" fill-opacity="0.6"/>
<circle cx="318" cy="51.0001" r="23.5" fill="#171717" stroke="#202020"/>
<path fill-rule="evenodd" clip-rule="evenodd" d="M314.445 39C313.512 39 312.899 39.6815 312.563 40.5724C312.324 41.2061 312.226 41.9268 312.185 42.4159H308.718C307.77 42.4159 307 43.181 307 44.1238V46.4011C307 47.3439 307.77 48.109 308.718 48.109V60.6328C308.718 61.8898 309.745 62.9111 311.009 62.9111H325.9C327.165 62.9111 328.191 61.8898 328.191 60.6328V48.109C329.139 48.109 329.909 47.3439 329.909 46.4011V44.1238C329.909 43.181 329.139 42.4159 328.191 42.4159H324.724C324.684 41.9268 324.586 41.2061 324.346 40.5724C324.011 39.6815 323.397 39 322.464 39C321.398 39 320.425 39.6057 319.658 40.3686C319.158 40.8651 318.749 41.419 318.455 41.8665C318.16 41.419 317.751 40.8651 317.251 40.3686C316.484 39.6057 315.511 39 314.445 39ZM314.445 40.1386C315.213 40.1386 315.888 40.6243 316.441 41.1736C316.854 41.5841 317.193 42.0367 317.447 42.4159H313.332C313.368 42.0122 313.45 41.4611 313.634 40.9715C313.794 40.5491 314.003 40.1386 314.445 40.1386ZM322.464 40.1386C322.906 40.1386 323.115 40.5491 323.275 40.9715C323.459 41.4611 323.541 42.0122 323.578 42.4159H319.463C319.716 42.0367 320.055 41.5841 320.468 41.1736C321.021 40.6243 321.696 40.1386 322.464 40.1386ZM308.718 43.5545H316.164V46.9704H308.718C308.402 46.9704 308.145 46.7153 308.145 46.4011V44.1238C308.145 43.8096 308.402 43.5545 308.718 43.5545ZM317.309 43.5545H319.6V61.7725H317.309V43.5545ZM320.745 43.5545H328.191C328.507 43.5545 328.764 43.8096 328.764 44.1238V46.4011C328.764 46.7153 328.507 46.9704 328.191 46.9704H320.745V43.5545ZM309.864 48.109H316.164V61.7725H311.009C310.377 61.7725 309.864 61.2624 309.864 60.6328V48.109ZM320.745 48.109H327.045V60.6328C327.045 61.2624 326.532 61.7725 325.9 61.7725H320.745V48.109Z" fill="white"/>
<g filter="url(#filter0_d_660_14141)">
<path d="M194 61.3095C196.475 59.8805 199.525 59.8805 202 61.3095L228.641 76.6907C231.116 78.1198 232.641 80.7608 232.641 83.6189V114.381C232.641 117.239 231.116 119.88 228.641 121.31L202 136.691C199.525 138.12 196.475 138.12 194 136.691L167.359 121.31C164.884 119.88 163.359 117.239 163.359 114.381V83.6189C163.359 80.7608 164.884 78.1198 167.359 76.6907L194 61.3095Z" fill="#110B1C"/>
<path d="M201.7 61.8291L228.341 77.2103C230.631 78.5322 232.041 80.9752 232.041 83.6189V114.381C232.041 117.025 230.631 119.468 228.341 120.79L201.7 136.171C199.41 137.493 196.59 137.493 194.3 136.171L167.659 120.79C165.369 119.468 163.959 117.025 163.959 114.381V83.6189C163.959 80.9752 165.369 78.5322 167.659 77.2103L194.3 61.8291C196.59 60.5073 199.41 60.5073 201.7 61.8291Z" stroke="#005EFE" stroke-width="1.2"/>
</g>
<path d="M207.817 93.9888H205.54V92.2592C205.54 90.334 204.772 88.4876 203.406 87.1262C202.039 85.7648 200.186 85 198.254 85C196.321 85 194.468 85.7648 193.101 87.1262C191.735 88.4876 190.967 90.334 190.967 92.2592V93.9888H188.684C188.196 93.9896 187.713 94.0867 187.264 94.2745C186.814 94.4623 186.406 94.7371 186.063 95.083C185.721 95.4289 185.45 95.839 185.268 96.2897C185.085 96.7403 184.994 97.2225 185 97.7083V109.226C185.002 110.199 185.391 111.132 186.081 111.82C186.771 112.508 187.707 112.895 188.684 112.896H207.817C208.793 112.895 209.728 112.507 210.418 111.819C211.107 111.131 211.495 110.199 211.495 109.226V97.7083C211.501 97.2228 211.411 96.7407 211.229 96.2901C211.047 95.8395 210.778 95.4294 210.436 95.0834C210.094 94.7374 209.686 94.4625 209.236 94.2746C208.787 94.0867 208.305 93.9896 207.817 93.9888ZM193.027 92.2592C193.027 91.5754 193.162 90.8983 193.425 90.2665C193.687 89.6347 194.072 89.0607 194.558 88.5771C195.043 88.0936 195.619 87.71 196.253 87.4483C196.888 87.1866 197.567 87.0519 198.254 87.0519C198.94 87.0519 199.62 87.1866 200.254 87.4483C200.888 87.71 201.464 88.0936 201.949 88.5771C202.435 89.0607 202.82 89.6347 203.082 90.2665C203.345 90.8983 203.48 91.5754 203.48 92.2592V93.9888H193.027V92.2592ZM209.447 109.226C209.447 109.654 209.277 110.065 208.974 110.368C208.671 110.672 208.259 110.843 207.83 110.844H188.684C188.47 110.846 188.257 110.805 188.059 110.725C187.86 110.644 187.68 110.525 187.527 110.375C187.375 110.225 187.255 110.046 187.172 109.848C187.09 109.651 187.047 109.44 187.047 109.226V97.7083C187.047 97.2792 187.218 96.8677 187.523 96.5642C187.828 96.2608 188.241 96.0903 188.671 96.0903H207.817C208.031 96.0895 208.243 96.1308 208.441 96.2117C208.638 96.2927 208.818 96.4117 208.97 96.562C209.121 96.7124 209.241 96.891 209.323 97.0877C209.405 97.2844 209.447 97.4953 209.447 97.7083V109.226Z" fill="#005EFE"/>
<path d="M198.247 100.411C197.976 100.411 197.716 100.518 197.524 100.709C197.331 100.899 197.222 101.158 197.221 101.428V105.464C197.221 105.736 197.329 105.996 197.521 106.188C197.714 106.379 197.975 106.487 198.247 106.487C198.52 106.487 198.781 106.379 198.973 106.188C199.166 105.996 199.274 105.736 199.274 105.464V101.428C199.272 101.158 199.164 100.899 198.971 100.709C198.779 100.518 198.519 100.411 198.247 100.411Z" fill="#005EFE"/>
<defs>
<filter id="filter0_d_660_14141" x="103.359" y="0.237671" width="189.282" height="197.525" filterUnits="userSpaceOnUse" color-interpolation-filters="sRGB">
<feFlood flood-opacity="0" result="BackgroundImageFix"/>
<feColorMatrix in="SourceAlpha" type="matrix" values="0 0 0 0 0 0 0 0 0 0 0 0 0 0 0 0 0 0 127 0" result="hardAlpha"/>
<feOffset/>
<feGaussianBlur stdDeviation="30"/>
<feComposite in2="hardAlpha" operator="out"/>
<feColorMatrix type="matrix" values="0 0 0 0 0 0 0 0 0 0.368627 0 0 0 0 0.996078 0 0 0 0.4 0"/>
<feBlend mode="normal" in2="BackgroundImageFix" result="effect1_dropShadow_660_14141"/>
<feBlend mode="normal" in="SourceGraphic" in2="effect1_dropShadow_660_14141" result="shape"/>
</filter>
<linearGradient id="paint0_linear_660_14141" x1="151" y1="99.5001" x2="43" y2="47.5001" gradientUnits="userSpaceOnUse">
<stop stop-color="#202020"/>
<stop offset="1" stop-color="#191B1F" stop-opacity="0"/>
</linearGradient>
<linearGradient id="paint1_linear_660_14141" x1="245" y1="112" x2="352" y2="133.5" gradientUnits="userSpaceOnUse">
<stop stop-color="#1D1D1D"/>
<stop offset="1" stop-color="#191B1F" stop-opacity="0"/>
</linearGradient>
<linearGradient id="paint2_linear_660_14141" x1="163" y1="110" x2="63.1991" y2="179.362" gradientUnits="userSpaceOnUse">
<stop stop-color="#202020"/>
<stop offset="1" stop-color="#191B1F" stop-opacity="0"/>
</linearGradient>
<linearGradient id="paint3_linear_660_14141" x1="247" y1="75.5001" x2="301.5" y2="35.0001" gradientUnits="userSpaceOnUse">
<stop stop-color="#202020"/>
<stop offset="1" stop-color="#191B1F" stop-opacity="0"/>
</linearGradient>
</defs>
</svg>
