<svg width="701" height="393" viewBox="0 0 701 393" fill="none" xmlns="http://www.w3.org/2000/svg">
<g clip-path="url(#clip0_397_45)">
<path d="M168.298 7.71808L101.379 76.4622L172.557 146.423H529.661L598.405 76.4622C579.141 57.6032 538.422 17.4517 529.661 7.71808C520.901 -2.01556 511.411 3.6624 507.761 7.71808L440.233 76.4622C424.821 86.8042 385.116 107.732 349.588 108.705C314.06 109.678 275.572 87.6154 260.768 76.4622C242.315 58.6171 202.731 19.8852 192.024 7.71808C181.317 -4.44902 171.746 2.64846 168.298 7.71808Z" fill="white" stroke="white" stroke-width="1.21671"/>
<path d="M68.5274 108.704L1 177.448C67.9191 243.759 201.767 379.432 208.449 386.114C215.141 392.806 220.008 392.198 223.658 392.198C304.164 391.995 467.106 392.198 474.909 392.198C482.209 392.198 487.076 388.548 489.509 386.114L700 177.448C680.33 159.4 638.799 120.384 630.039 108.704C621.279 97.0239 611.383 103.837 607.53 108.704L474.909 243.15C456.05 260.185 404.339 291.819 348.371 291.819C300.189 296.686 244.342 263.227 223.658 243.15C183.101 202.391 99.7969 118.438 91.0366 108.704C82.2762 98.9704 72.3803 104.648 68.5274 108.704Z" fill="white" stroke="white" stroke-width="1.21671"/>
</g>
<defs>
<clipPath id="clip0_397_45">
<rect width="701" height="393" fill="white"/>
</clipPath>
</defs>
</svg>
