<svg width="1858" height="324" viewBox="0 0 1858 324" fill="none" xmlns="http://www.w3.org/2000/svg">
<path d="M113.897 5.53353L68.7378 51.9237L116.77 99.135H357.753L404.143 51.9237C391.143 39.1972 363.665 12.102 357.753 5.53353C351.841 -1.03498 345.437 2.79665 342.974 5.53353L297.405 51.9237C287.005 58.9028 260.211 73.0251 236.235 73.682C212.26 74.3388 186.287 59.4502 176.298 51.9237C163.845 39.8814 137.133 13.7442 129.907 5.53353C122.682 -2.67713 116.223 2.11242 113.897 5.53353Z" fill="white" stroke="white" stroke-width="0.821066"/>
<path d="M46.5691 73.6812L1 120.071C46.1586 164.82 136.483 256.375 140.992 260.884C145.508 265.4 148.792 264.99 151.255 264.99C205.582 264.853 315.54 264.99 320.805 264.99C325.732 264.99 329.016 262.527 330.658 260.884L472.702 120.071C459.428 107.892 431.403 81.5633 425.491 73.6812C419.579 65.7991 412.901 70.397 410.301 73.6812L320.805 164.409C308.079 175.904 273.183 197.251 235.414 197.251C202.9 200.536 165.213 177.957 151.255 164.409C123.886 136.903 67.6705 80.2497 61.7589 73.6812C55.8472 67.1127 49.1692 70.9443 46.5691 73.6812Z" fill="white" stroke="white" stroke-width="0.821066"/>
<path d="M834.962 17.0767H988.102V52.2957H928.984V246H892.507V52.2957H834.962V17.0767ZM1032.03 131.853C1032.03 115.92 1035.07 100.931 1041.15 86.8857C1047.23 72.8401 1055.61 60.3667 1066.3 49.4656C1076.99 38.5645 1089.36 30.0742 1103.41 23.9947C1117.66 17.7056 1132.86 14.561 1149 14.561C1164.94 14.561 1179.93 17.7056 1193.97 23.9947C1208.23 30.0742 1220.7 38.5645 1231.39 49.4656C1242.29 60.3667 1250.78 72.8401 1256.86 86.8857C1263.15 100.931 1266.3 115.92 1266.3 131.853C1266.3 147.995 1263.15 163.089 1256.86 177.134C1250.78 191.18 1242.29 203.653 1231.39 214.554C1220.7 225.246 1208.23 233.631 1193.97 239.711C1179.93 245.581 1164.94 248.516 1149 248.516C1132.65 248.516 1117.45 245.581 1103.41 239.711C1089.36 233.631 1076.99 225.351 1066.3 214.869C1055.61 204.177 1047.23 191.809 1041.15 177.763C1035.07 163.508 1032.03 148.204 1032.03 131.853ZM1069.76 131.853C1069.76 143.173 1071.75 153.76 1075.74 163.613C1079.93 173.466 1085.69 182.166 1093.03 189.713C1100.37 197.05 1108.86 202.815 1118.5 207.008C1128.15 211.2 1138.63 213.297 1149.95 213.297C1160.85 213.297 1171.02 211.2 1180.45 207.008C1190.09 202.815 1198.48 197.05 1205.61 189.713C1212.73 182.166 1218.29 173.466 1222.27 163.613C1226.47 153.76 1228.56 143.173 1228.56 131.853C1228.56 120.323 1226.47 109.631 1222.27 99.7784C1218.08 89.9255 1212.42 81.2255 1205.29 73.6786C1198.16 66.1317 1189.78 60.2619 1180.14 56.0691C1170.49 51.8764 1160.12 49.78 1149 49.78C1137.89 49.78 1127.52 51.8764 1117.87 56.0691C1108.23 60.2619 1099.74 66.1317 1092.4 73.6786C1085.27 81.2255 1079.72 90.0303 1075.74 100.093C1071.75 109.946 1069.76 120.532 1069.76 131.853ZM1400.4 17.0767C1417.8 17.0767 1432.69 20.0116 1445.05 25.8814C1457.42 31.7513 1466.86 40.1367 1473.35 51.0379C1480.06 61.939 1483.42 75.1461 1483.42 90.6592C1483.42 99.6736 1481.95 108.688 1479.02 117.702C1476.29 126.717 1471.89 134.893 1465.81 142.23C1459.94 149.567 1451.97 155.542 1441.91 160.154C1432.06 164.556 1419.9 166.757 1405.43 166.757H1372.41V246H1335.62V17.0767H1400.4ZM1405.43 131.224C1413.4 131.224 1420.11 129.861 1425.56 127.136C1431.01 124.411 1435.2 120.952 1438.14 116.759C1441.28 112.566 1443.48 108.269 1444.74 103.866C1446.21 99.2543 1446.94 95.1664 1446.94 91.6025C1446.94 87.8291 1446.31 83.7412 1445.05 79.3388C1443.8 74.7268 1441.7 70.4292 1438.76 66.4461C1435.83 62.2534 1431.74 58.8992 1426.5 56.3836C1421.26 53.6583 1414.55 52.2957 1406.38 52.2957H1372.41V131.224H1405.43ZM1548.3 17.0767H1585.09V246H1548.3V17.0767Z" fill="white"/>
<path d="M1738 19.4678L1630 245.468H1659L1738.5 65.9678L1821 245.468H1851.5L1741.5 19.4678H1738Z" fill="white" stroke="white" stroke-width="8"/>
<path d="M691.5 245.468L799.5 19.4678H770.5L691 198.968L608.5 19.4678H578L688 245.468H691.5Z" fill="white" stroke="white" stroke-width="8"/>
</svg>
